# File created by Blade
# Date/Time:  Fri Jan 16 14:33:41 2015
# Frame Rate: 120.000 fps
#------------------------------------------------------
:FULLY-SPECIFIED
:DEGREES
2005
root 19.221095 35.746260 -24.203027 -170.068860 -12.123727 -180.126364
Spine -18.633745 -7.375347 -1.109881
Head 7.086421 -12.120749 1.659232
LeftShoulder -12.335040 -17.615798 -5.564697
LeftArm -15.179039 10.662233 -71.243941
LeftForeArm 2.927316 -0.000000 7.502929
LeftHand -1.724330 -0.000000 0.715548
LeftHandThumb1 -26.253704 0.000000 33.147579
RightShoulder -11.979082 -5.875825 -10.791376
RightArm -26.205946 64.046495 4.270441
RightForeArm -24.886621 -0.000000 84.134837
RightHand 7.607920 -0.000000 -26.461590
RightHandThumb1 -24.326973 -0.000000 -32.862282
LeftUpLeg -3.322103 3.834380 0.562455
LeftLeg -5.219564 -0.000000 0.000000
LeftFoot -17.816357 22.108929 -14.816851
LeftToeBase 25.511875 -0.000000 -0.000000
RightUpLeg -1.646665 -17.628439 3.845383
RightLeg -4.287866 -0.000000 0.000000
RightFoot -22.106780 -27.204742 18.192722
RightToeBase 21.707213 -0.000000 -0.000000
2006
root 19.224533 35.745512 -24.203319 -170.034944 -12.075308 -180.110841
Spine -18.628726 -7.448866 -1.095378
Head 7.058302 -12.076584 1.757869
LeftShoulder -12.424663 -17.609517 -5.511753
LeftArm -15.142760 10.680823 -71.276938
LeftForeArm 3.003800 -0.000000 7.465945
LeftHand -1.683778 -0.000000 0.494123
LeftHandThumb1 -26.253704 0.000000 33.147579
RightShoulder -12.264429 -6.280143 -10.237694
RightArm -25.855199 64.183573 5.580812
RightForeArm -24.942022 0.000000 84.900646
RightHand 7.468222 -0.000000 -26.446150
RightHandThumb1 -24.326973 -0.000000 -32.862282
LeftUpLeg -3.352361 3.858466 0.575419
LeftLeg -5.220962 -0.000000 0.000000
LeftFoot -17.825122 22.140644 -14.814354
LeftToeBase 25.435505 -0.000000 -0.000000
RightUpLeg -1.692475 -17.603430 3.869750
RightLeg -4.274545 -0.000000 0.000000
RightFoot -22.112356 -27.211070 18.244842
RightToeBase 21.626266 -0.000000 -0.000000
2007
root 19.228136 35.744831 -24.203486 -170.002048 -12.025224 -180.098064
Spine -18.614615 -7.489908 -1.103106
Head 7.021115 -12.039898 1.882725
LeftShoulder -12.503362 -17.597362 -5.450159
LeftArm -15.096672 10.692862 -71.312794
LeftForeArm 2.937236 -0.000000 7.436407
LeftHand -1.683350 -0.000000 0.653991
LeftHandThumb1 -26.253704 0.000000 33.147579
RightShoulder -12.490328 -6.557391 -9.688757
RightArm -25.809295 64.156273 6.624556
RightForeArm -24.828579 0.000000 85.632829
RightHand 7.430970 0.000000 -26.423303
RightHandThumb1 -24.326973 -0.000000 -32.862282
LeftUpLeg -3.387686 3.903240 0.585364
LeftLeg -5.212374 -0.000000 0.000000
LeftFoot -17.838900 22.137488 -14.787587
LeftToeBase 25.468764 -0.000000 -0.000000
RightUpLeg -1.734305 -17.574352 3.893614
RightLeg -4.278582 -0.000000 0.000000
RightFoot -22.082419 -27.180190 18.150734
RightToeBase 21.673562 -0.000000 -0.000000
2008
root 19.231512 35.743095 -24.201501 -169.992963 -11.996348 -180.090797
Spine -18.557809 -7.578885 -1.108880
Head 6.961691 -11.981556 2.017631
LeftShoulder -12.601547 -17.624583 -5.402632
LeftArm -15.075731 10.659017 -71.318127
LeftForeArm 2.988788 -0.000000 7.449519
LeftHand -1.693848 -0.000000 0.692619
LeftHandThumb1 -26.253704 0.000000 33.147579
RightShoulder -12.689372 -6.961471 -9.045624
RightArm -25.736970 64.142235 7.621306
RightForeArm -24.600668 0.000000 86.346790
RightHand 7.292954 -0.000000 -26.599111
RightHandThumb1 -24.326973 -0.000000 -32.862282
LeftUpLeg -3.409693 3.912587 0.592499
LeftLeg -5.190916 -0.000000 0.000000
LeftFoot -17.866123 22.173654 -14.746008
LeftToeBase 25.543501 -0.000000 -0.000000
RightUpLeg -1.752682 -17.566406 3.906568
RightLeg -4.276406 -0.000000 0.000000
RightFoot -22.074670 -27.167715 18.102179
RightToeBase 21.754210 -0.000000 -0.000000
2009
root 19.234247 35.741738 -24.200768 -169.974073 -11.957624 -180.085794
Spine -18.510932 -7.613544 -1.139986
Head 6.883659 -11.973096 2.173733
LeftShoulder -12.676996 -17.666321 -5.360882
LeftArm -15.068217 10.596764 -71.312351
LeftForeArm 3.062256 -0.000000 7.471135
LeftHand -1.692845 -0.000000 0.721354
LeftHandThumb1 -26.253704 0.000000 33.147579
RightShoulder -12.922814 -7.264161 -8.385796
RightArm -25.772600 64.016384 8.515023
RightForeArm -24.384919 -0.000000 87.078605
RightHand 7.045446 -0.000000 -26.725709
RightHandThumb1 -24.326973 -0.000000 -32.862282
LeftUpLeg -3.430416 3.929863 0.595723
LeftLeg -5.181662 -0.000000 0.000000
LeftFoot -17.874328 22.197049 -14.711949
LeftToeBase 25.524160 -0.000000 -0.000000
RightUpLeg -1.777509 -17.540418 3.915425
RightLeg -4.275037 -0.000000 0.000000
RightFoot -22.072870 -27.149307 18.072777
RightToeBase 21.774756 -0.000000 -0.000000
2010
root 19.238762 35.740085 -24.200754 -169.951417 -11.935575 -180.076231
Spine -18.466532 -7.646746 -1.172647
Head 6.798021 -11.984664 2.339540
LeftShoulder -12.760962 -17.697169 -5.327899
LeftArm -15.035086 10.565153 -71.298380
LeftForeArm 3.107001 -0.000000 7.494101
LeftHand -1.671119 -0.000000 0.756601
LeftHandThumb1 -26.253704 0.000000 33.147579
RightShoulder -13.104193 -7.543979 -7.752268
RightArm -26.043752 63.814784 9.278185
RightForeArm -23.878479 0.000000 87.801810
RightHand 6.924736 -0.000000 -26.844372
RightHandThumb1 -24.326973 -0.000000 -32.862282
LeftUpLeg -3.456008 3.921750 0.610014
LeftLeg -5.176435 -0.000000 0.000000
LeftFoot -17.894767 22.233659 -14.683557
LeftToeBase 25.534392 -0.000000 -0.000000
RightUpLeg -1.800090 -17.533044 3.937478
RightLeg -4.287387 -0.000000 0.000000
RightFoot -22.069353 -27.135276 18.062967
RightToeBase 21.782149 -0.000000 -0.000000
2011
root 19.242783 35.738208 -24.200219 -169.927445 -11.904724 -180.067986
Spine -18.428823 -7.678765 -1.207764
Head 6.705738 -11.973380 2.515505
LeftShoulder -12.828594 -17.743443 -5.286692
LeftArm -15.076536 10.444416 -71.279645
LeftForeArm 3.177356 -0.000000 7.615450
LeftHand -1.704399 -0.000000 0.826442
LeftHandThumb1 -26.253704 0.000000 33.147579
RightShoulder -13.291139 -7.829362 -7.133692
RightArm -26.284721 63.589640 10.126938
RightForeArm -23.548674 0.000000 88.485372
RightHand 6.931885 0.000000 -26.860985
RightHandThumb1 -24.326973 -0.000000 -32.862282
LeftUpLeg -3.481443 3.913281 0.621995
LeftLeg -5.171902 -0.000000 0.000000
LeftFoot -17.914015 22.278794 -14.656882
LeftToeBase 25.559412 -0.000000 -0.000000
RightUpLeg -1.826058 -17.501572 3.955456
RightLeg -4.295698 -0.000000 0.000000
RightFoot -22.057500 -27.145971 18.019620
RightToeBase 21.725875 -0.000000 -0.000000
2012
root 19.247787 35.736457 -24.200453 -169.895498 -11.885540 -180.059736
Spine -18.403565 -7.711022 -1.248003
Head 6.632760 -11.995794 2.680088
LeftShoulder -12.896724 -17.762244 -5.243090
LeftArm -15.098127 10.361262 -71.269711
LeftForeArm 3.229541 0.000000 7.744101
LeftHand -1.745569 -0.000000 0.899451
LeftHandThumb1 -26.253704 0.000000 33.147579
RightShoulder -13.636288 -8.367320 -6.475332
RightArm -25.984390 63.427728 11.544378
RightForeArm -23.398714 0.000000 89.247975
RightHand 6.613128 -0.000000 -26.939303
RightHandThumb1 -24.326973 -0.000000 -32.862282
LeftUpLeg -3.515721 3.920344 0.635087
LeftLeg -5.169881 -0.000000 0.000000
LeftFoot -17.932982 22.294276 -14.625814
LeftToeBase 25.600751 -0.000000 -0.000000
RightUpLeg -1.859317 -17.516326 3.982281
RightLeg -4.304564 -0.000000 0.000000
RightFoot -22.053474 -27.123657 18.000169
RightToeBase 21.704438 -0.000000 -0.000000
